HIERARCHY
ROOT Hips
{
	OFFSET 0.0000 0.0000 0.0000
	CHANNELS 6 Xposition Yposition Zposition Zrotation Xrotation Yrotation
	JOINT Ab
	{
		OFFSET -0.0000 8.1305 -0.0000
		CHANNELS 3 Zrotation Xrotation Yrotation
		JOINT Chest
		{
			OFFSET -0.0000 26.2902 -0.0000
			CHANNELS 3 Zrotation Xrotation Yrotation
			JOINT Neck
			{
				OFFSET -0.0000 26.2902 0.0000
				CHANNELS 3 Zrotation Xrotation Yrotation
				JOINT Head
				{
					OFFSET -0.0000 10.8167 0.0000
					CHANNELS 3 Zrotation Xrotation Yrotation
					End Site
					{
						OFFSET -0.0000 16.7167 0.0000
					}
				}
			}
			JOINT LeftCollar
			{
				OFFSET -0.0000 26.2902 0.0000
				CHANNELS 3 Zrotation Xrotation Yrotation
				JOINT LeftShoulder
				{
					OFFSET 19.6667 -0.0000 0.0000
					CHANNELS 3 Zrotation Xrotation Yrotation
					JOINT LeftElbow
					{
						OFFSET 27.2190 0.0000 0.0000
						CHANNELS 3 Zrotation Xrotation Yrotation
						JOINT LeftWrist
						{
							OFFSET 30.7431 0.0000 0.0000
							CHANNELS 3 Zrotation Xrotation Yrotation
							End Site
							{
								OFFSET 0.0000 -14.7500 0.0000
							}
						}
					}
				}
			}
			JOINT RightCollar
			{
				OFFSET -0.0000 26.2902 0.0000
				CHANNELS 3 Zrotation Xrotation Yrotation
				JOINT RightShoulder
				{
					OFFSET -19.6667 0.0000 0.0000
					CHANNELS 3 Zrotation Xrotation Yrotation
					JOINT RightElbow
					{
						OFFSET -27.2190 0.0000 0.0000
						CHANNELS 3 Zrotation Xrotation Yrotation
						JOINT RightWrist
						{
							OFFSET -30.7431 0.0000 0.0000
							CHANNELS 3 Zrotation Xrotation Yrotation
							End Site
							{
								OFFSET -0.0000 -14.7500 0.0000
							}
						}
					}
				}
			}
		}
	}
	JOINT LeftHip
	{
		OFFSET 11.8000 0.0000 0.0000
		CHANNELS 3 Zrotation Xrotation Yrotation
		JOINT LeftKnee
		{
			OFFSET -0.0000 -39.7832 0.0000
			CHANNELS 3 Zrotation Xrotation Yrotation
			JOINT LeftAnkle
			{
				OFFSET -0.0000 -41.7317 0.0000
				CHANNELS 3 Zrotation Xrotation Yrotation
				End Site
				{
					OFFSET -0.0000 -4.9167 16.7167
				}
			}
		}
	}
	JOINT RightHip
	{
		OFFSET -11.8000 0.0000 0.0000
		CHANNELS 3 Zrotation Xrotation Yrotation
		JOINT RightKnee
		{
			OFFSET -0.0000 -39.7832 0.0000
			CHANNELS 3 Zrotation Xrotation Yrotation
			JOINT RightAnkle
			{
				OFFSET -0.0000 -41.7317 0.0000
				CHANNELS 3 Zrotation Xrotation Yrotation
				End Site
				{
					OFFSET -0.0000 -4.9167 16.7167
				}
			}
		}
	}
}
MOTION
Frames: 24
Frame Time: 0.010000
-16.9975 97.0028 175.0886 358.8938 358.4487 180.6035 357.6632 348.1737 0.2369 3.3798 10.1954 0.1718 359.4717 359.2901 0.2255 354.7744 4.9826 0.4444 339.8081 357.4437 14.2528 316.7085 58.5907 341.1036 10.2021 357.0241 327.5784 87.5877 357.8875 346.8400 26.9344 355.8737 342.9463 46.0332 45.9522 3.8383 340.1851 354.5829 30.1727 270.8714 355.5236 10.5064 357.9620 4.0071 358.5131 357.7879 6.6060 3.3190 352.6788 351.1393 15.3115 359.0972 7.4636 11.9537 5.4039 4.6088 10.0804 350.5525 344.3801 315.0568 
-17.0112 97.0021 175.0769 358.8877 358.4383 180.6077 357.6603 348.1601 0.2342 3.3782 10.2155 0.1663 359.4678 359.2682 0.2094 354.7696 4.9956 0.4472 339.8047 357.4472 14.2418 316.6867 58.5808 341.1157 10.2216 357.0460 327.5680 87.6585 357.8576 346.9402 26.9429 355.8840 342.9296 46.0037 45.9615 3.8882 340.1519 354.6107 30.1477 270.8525 355.4802 10.4986 357.9459 4.0026 358.5119 357.7884 6.6056 3.3548 352.6409 351.1367 15.2689 359.0809 7.4684 11.9773 5.4063 4.5930 10.0416 350.4719 344.4294 315.0662 
-17.0232 97.0014 175.0654 358.8821 358.4295 180.6013 357.6742 348.1546 0.2235 3.3496 10.2213 0.1678 359.4403 359.2852 0.2118 354.8145 4.9620 0.4318 339.8142 357.4442 14.2484 316.6937 58.5902 341.0971 10.2144 357.0180 327.5763 87.6747 357.8706 346.9110 26.9514 355.8587 342.9408 46.0298 45.9608 3.8569 340.1125 354.6092 30.1404 270.8604 355.4746 10.4754 357.9327 4.0104 358.5111 357.7851 6.5917 3.3359 352.7600 351.1774 15.3448 359.0636 7.4570 11.9970 5.4199 4.6066 10.0242 350.5456 344.3774 315.0611 
-17.0348 96.9991 175.0611 358.8791 358.4095 180.6090 357.6754 348.1510 0.2140 3.3438 10.2192 0.1569 359.4062 359.2794 0.2143 354.8469 4.9532 0.4381 339.8154 357.4482 14.2534 316.6751 58.5659 341.1025 10.1855 357.0118 327.5764 87.6243 357.8566 346.8420 26.9770 355.8862 342.9580 46.0083 45.9070 3.8319 340.1810 354.6151 30.1843 270.8257 355.5064 10.5065 357.9178 3.9750 358.5320 357.7994 6.6272 3.3033 352.7048 351.1436 15.3147 359.0597 7.4349 11.9476 5.4079 4.6242 10.0702 350.5456 344.3717 315.0559 
-17.0466 96.9963 175.0500 358.8830 358.4061 180.6133 357.6817 348.1539 0.2090 3.3442 10.2219 0.1466 359.3841 359.2963 0.2140 354.8629 4.9274 0.4429 339.8067 357.4592 14.2594 316.6953 58.5721 341.0831 10.1817 357.0295 327.5668 87.6589 357.8528 346.9093 26.9922 355.8928 342.9615 45.9732 45.9166 3.8588 340.1685 354.5908 30.1735 270.8471 355.5013 10.5001 357.9173 3.9791 358.5280 357.7895 6.6252 3.3033 352.7017 351.1478 15.3514 359.0565 7.4393 11.9758 5.4113 4.6207 10.0189 350.5599 344.3614 315.0742 
-17.0579 96.9920 175.0373 358.8862 358.4103 180.6115 357.6856 348.1699 0.2066 3.3469 10.2171 0.1384 359.3555 359.3146 0.2165 354.8942 4.8961 0.4441 339.8094 357.4510 14.2561 316.6479 58.5771 341.1187 10.2077 357.0003 327.5723 87.7073 357.8613 346.8933 26.9949 355.8744 342.9653 45.9727 45.9522 3.8504 340.1327 354.5811 30.1649 270.8308 355.4931 10.4321 357.9140 3.9889 358.5369 357.7881 6.6300 3.2873 352.7310 351.1487 15.3675 359.0529 7.4530 11.9998 5.4129 4.6138 9.9785 350.5080 344.3958 315.0913 
-17.0697 96.9880 175.0250 358.8922 358.4058 180.6106 357.6832 348.1681 0.2073 3.3606 10.2275 0.1358 359.3393 359.3185 0.2164 354.9107 4.8816 0.4346 339.8106 357.4444 14.2582 316.6438 58.5968 341.1097 10.2140 357.0108 327.5815 87.6440 357.8484 346.8844 27.0019 355.8787 342.9671 45.9580 45.9312 3.8408 340.1800 354.6022 30.1759 270.7733 355.4833 10.5004 357.9145 3.9854 358.5503 357.7829 6.6468 3.2692 352.7261 351.1340 15.3558 359.0532 7.4486 11.9692 5.4112 4.6310 10.0069 350.5445 344.3528 315.0849 
-17.0824 96.9857 175.0149 358.8960 358.3968 180.6045 357.6863 348.1622 0.2043 3.3641 10.2407 0.1326 359.3168 359.3110 0.2085 354.9360 4.8791 0.4243 339.7953 357.4540 14.2726 316.7352 58.5973 341.0152 10.1595 357.0329 327.5972 87.7093 357.8364 346.8849 27.0123 355.8857 342.9683 45.9405 45.9224 3.8501 340.1855 354.6094 30.1761 270.7887 355.4994 10.4945 357.9093 3.9742 358.5671 357.7849 6.6631 3.2606 352.7308 351.1117 15.3281 359.0456 7.4425 11.9818 5.4167 4.6352 9.9929 350.5359 344.3446 315.0905 
-17.0973 96.9832 175.0057 358.8924 358.3892 180.6000 357.6813 348.1663 0.2022 3.3697 10.2404 0.1358 359.2909 359.3298 0.2071 354.9751 4.8455 0.4167 339.7876 357.4346 14.2722 316.7675 58.6358 340.9901 10.1989 357.0221 327.6095 87.6977 357.8180 346.9203 27.0170 355.8913 342.9672 45.9364 45.9207 3.8509 340.1760 354.5994 30.1729 270.8220 355.5195 10.4546 357.8933 3.9636 358.5685 357.7874 6.6806 3.2706 352.7950 351.1233 15.3477 359.0287 7.4397 12.0093 5.4201 4.6349 9.9684 350.5899 344.3157 315.1031 
-17.1115 96.9806 174.9941 358.8972 358.3829 180.5967 357.6762 348.1639 0.2046 3.3831 10.2528 0.1393 359.2858 359.3181 0.2013 354.9843 4.8488 0.4114 339.7690 357.4460 14.2609 316.8134 58.6382 340.9781 10.1566 357.0340 327.5960 87.6648 357.8091 346.8890 27.0157 355.8911 342.9756 45.9586 45.8905 3.8249 340.1640 354.6129 30.1788 270.8426 355.5153 10.4627 357.8902 3.9578 358.5780 357.7850 6.6970 3.2419 352.7588 351.0975 15.3535 359.0234 7.4328 11.9783 5.4207 4.6504 9.9761 350.6041 344.2996 315.1208 
-17.1264 96.9779 174.9813 358.8987 358.3774 180.5902 357.6713 348.1576 0.2091 3.3896 10.2695 0.1400 359.2920 359.3093 0.1907 354.9812 4.8525 0.4112 339.7695 357.4478 14.2596 316.8354 58.6552 340.9455 10.1961 357.0403 327.5953 87.6781 357.8335 346.9690 27.0154 355.8884 342.9765 45.9725 45.8999 3.8097 340.1339 354.5898 30.2037 271.0981 355.4112 10.0233 357.8828 3.9555 358.5858 357.7842 6.7090 3.2082 352.7164 351.0649 15.3689 359.0135 7.4337 11.9878 5.4226 4.6512 9.9715 350.5812 344.3051 315.1187 
-17.1425 96.9752 174.9698 358.8954 358.3722 180.5854 357.6639 348.1572 0.2072 3.3922 10.2806 0.1417 359.3135 359.2973 0.1892 354.9628 4.8639 0.4059 339.8772 357.4451 14.2898 316.6366 58.8724 340.8669 10.4748 356.9367 327.8463 87.6385 357.7664 347.0983 27.0116 355.9017 342.9715 45.9918 45.9028 3.8050 340.1278 354.5938 30.2034 271.1735 355.3845 9.9460 357.8683 3.9488 358.5985 357.7810 6.7283 3.2043 352.7500 351.0590 15.3781 359.0002 7.4358 11.9835 5.4235 4.6485 9.9397 350.5962 344.2968 315.1482 
-17.1588 96.9723 174.9617 358.8969 358.3634 180.5772 357.6611 348.1595 0.2098 3.3979 10.2868 0.1460 359.3229 359.2847 0.1906 354.9488 4.8774 0.3965 339.9585 357.4657 14.3173 316.4680 59.0191 340.8156 10.6417 356.8995 328.0563 87.5217 357.6594 347.0881 27.0009 355.8937 342.9677 46.0159 45.9310 3.8027 340.0704 354.5681 30.2029 271.3897 355.2999 9.6239 357.8577 3.9349 358.6125 357.7814 6.7497 3.2064 352.7494 351.0373 15.3419 358.9878 7.4289 12.0141 5.4314 4.6485 9.9071 350.6340 344.2670 315.1547 
-17.1779 96.9702 174.9498 358.8959 358.3607 180.5660 357.6622 348.1637 0.2139 3.3929 10.2923 0.1515 359.3328 359.2935 0.1849 354.9440 4.8686 0.3950 339.9502 357.4748 14.3150 316.4853 59.0002 340.8138 10.6496 356.9369 328.0450 87.4993 357.6742 347.0991 27.0017 355.8809 342.9635 46.0252 45.9569 3.7858 340.0455 354.5643 30.2225 271.6578 355.2029 9.2500 357.8446 3.9412 358.6208 357.7796 6.7494 3.1896 352.7586 351.0288 15.3474 358.9704 7.4284 12.0128 5.4362 4.6537 9.9065 350.6173 344.2686 315.1615 
-17.1954 96.9666 174.9395 358.8991 358.3496 180.5630 357.6588 348.1616 0.2152 3.4004 10.2934 0.1502 359.3205 359.3167 0.1754 354.9626 4.8416 0.3891 339.9530 357.4483 14.3043 316.4414 59.0108 340.8581 10.7197 356.9262 328.0514 87.5211 357.6729 347.1488 26.9974 355.8734 342.9648 46.0554 45.9474 3.7534 340.0622 354.5612 30.2271 271.6664 355.2245 9.2939 357.8359 3.9293 358.6238 357.7795 6.7662 3.1752 352.7741 351.0198 15.3578 358.9604 7.4140 11.9744 5.4329 4.6782 9.9644 350.6019 344.2658 315.1489 
-17.2134 96.9632 174.9320 358.9028 358.3406 180.5656 357.6554 348.1659 0.2144 3.4096 10.2952 0.1440 359.3111 359.3324 0.1698 354.9780 4.8231 0.3934 339.9384 357.4641 14.3197 316.5131 59.0005 340.7968 10.6374 356.9488 328.0213 87.8673 357.7125 347.3063 27.0026 355.8811 342.9672 46.0629 45.9255 3.7299 340.1019 354.5642 30.2398 271.6218 355.2221 9.3363 357.8290 3.9161 358.6239 357.7764 6.7815 3.1668 352.7815 351.0131 15.3661 358.9502 7.4057 11.9786 5.4372 4.6858 9.9367 350.6166 344.2477 315.1737 
-17.2362 96.9615 174.9198 358.9021 358.3355 180.5637 357.6512 348.1621 0.2184 3.4155 10.3100 0.1451 359.3112 359.3401 0.1741 354.9858 4.8110 0.3851 339.9349 357.4515 14.3301 316.5372 59.0157 340.7587 10.6892 356.9403 328.0272 87.9179 357.7262 347.3829 26.9951 355.8770 342.9658 46.0810 45.9265 3.7279 340.0929 354.5690 30.2111 271.5245 355.2364 9.5379 357.8109 3.9152 358.6103 357.7768 6.7891 3.1761 352.7827 350.9982 15.3793 358.9290 7.4079 11.9703 5.4499 4.6825 9.9200 350.6698 344.2078 315.1900 
-17.2573 96.9584 174.9101 358.9043 358.3273 180.5544 357.6530 348.1565 0.2198 3.4150 10.3270 0.1537 359.3378 359.3300 0.1804 354.9474 4.8249 0.3765 339.9305 357.4533 14.3221 316.5364 58.9968 340.7668 10.6655 356.9409 328.0268 87.8730 357.7193 347.3141 27.0048 355.8898 342.9522 46.0635 45.9210 3.7449 340.1229 354.5794 30.2084 271.4736 355.2738 9.6458 357.8024 3.9097 358.6250 357.7687 6.7965 3.1790 352.7964 351.0086 15.4021 358.9141 7.3922 11.9403 5.4559 4.7113 9.9432 350.6500 344.1985 315.1997 
-17.2776 96.9560 174.8995 358.9111 358.3239 180.5548 357.6686 348.1620 0.2182 3.4064 10.3345 0.1434 359.3066 359.3364 0.1744 354.9813 4.8115 0.3742 339.9246 357.4544 14.3496 316.6052 59.0032 340.6825 10.6671 356.9440 328.0458 87.8542 357.7199 347.3449 27.0187 355.8881 342.9392 46.0337 45.9600 3.7783 340.0917 354.5751 30.1876 271.4691 355.2633 9.6041 357.7961 3.9077 358.6328 357.7666 6.8074 3.1759 352.7908 350.9830 15.3564 358.9048 7.3899 11.9382 5.4580 4.7210 9.9404 350.6419 344.1983 315.2130 
-17.3005 96.9524 174.8966 358.9132 358.2965 180.5542 357.6614 348.1516 0.2219 3.4240 10.3330 0.1461 359.2850 359.3510 0.1796 354.9938 4.7982 0.3613 339.9081 357.4406 14.3543 316.6254 59.0098 340.6778 10.6763 356.9386 328.0358 87.8532 357.7369 347.3577 27.0105 355.8654 342.9377 46.0457 45.9559 3.7655 340.0795 354.5615 30.1825 271.4537 355.2885 9.6103 357.7887 3.8761 358.6234 357.7530 6.8204 3.1489 352.8246 350.9825 15.3919 358.8856 7.3522 11.9093 5.4758 4.7399 9.9576 350.6573 344.1744 315.2009 
-17.3268 96.9496 174.8884 358.9145 358.2846 180.5609 357.6677 348.1508 0.2192 3.4150 10.3363 0.1434 359.3276 359.3385 0.1694 354.9305 4.8198 0.3802 339.9155 357.4411 14.3180 316.5232 58.9747 340.7933 10.6773 356.9295 328.0175 87.8076 357.7320 347.2972 27.0219 355.8716 342.9282 46.0497 45.9232 3.7494 340.1052 354.5860 30.1936 271.4906 355.2623 9.6089 357.7730 3.8556 358.6409 357.7531 6.8462 3.1243 352.8309 350.9589 15.3965 358.8612 7.3307 11.8902 5.4972 4.7727 9.9517 350.6658 344.1402 315.2130 
-17.3539 96.9470 174.8747 358.9144 358.2822 180.5597 357.6772 348.1591 0.2146 3.4043 10.3333 0.1500 359.4193 359.3531 0.2129 354.8385 4.7809 0.4210 339.9261 357.4395 14.3469 316.5672 59.0284 340.7187 10.7107 356.9466 328.0506 87.7770 357.7146 347.3430 27.0231 355.8656 342.9236 46.0746 45.9112 3.7324 340.0538 354.5899 30.2000 271.6876 355.1879 9.3084 357.7502 3.8559 358.6432 357.7629 6.8563 3.1483 352.8647 350.9620 15.3575 358.8360 7.3278 11.8599 5.5034 4.7920 10.0050 350.6759 344.1121 315.2002 
-17.3830 96.9441 174.8593 358.9161 358.2877 180.5590 357.6814 348.1678 0.2248 3.4135 10.3440 0.1478 359.4134 359.3702 0.1823 354.7696 4.7893 0.4046 339.9139 357.4337 14.3379 316.5205 58.9900 340.7763 10.6776 356.9366 328.0549 87.6510 357.6930 347.1967 27.0189 355.8850 342.9138 46.0630 45.9226 3.7501 340.0687 354.5861 30.1946 271.6560 355.1916 9.2746 357.7332 3.8681 358.6486 357.7585 6.8690 3.1217 352.8563 350.9336 15.3771 358.8135 7.3348 11.8457 5.5147 4.8071 9.9859 350.7020 344.0894 315.2350 
-17.4085 96.9405 174.8483 358.9295 358.2828 180.5659 357.6920 348.1750 0.2208 3.4138 10.3433 0.1465 359.3898 359.3828 0.1584 354.7719 4.7944 0.3892 339.9095 357.4538 14.3312 316.5657 59.0061 340.7350 10.6536 356.9450 328.0602 87.6488 357.6968 347.2014 27.0185 355.8655 342.9007 46.0855 45.9343 3.7467 340.0143 354.5632 30.1669 271.7038 355.1797 9.2648 357.7367 3.8709 358.6404 357.7426 6.8662 3.1167 352.8323 350.9297 15.3935 358.8076 7.3238 11.8828 5.5276 4.8339 9.9983 350.6784 344.0894 315.1750 
